# xmcd
#
# Track frame offsets:
#	225
#	14542
#	44919
#	63544
#	85238
#	107256
#	134989
#	160640
#	178981
#	196700
#
# Disc length: 3009 seconds
#
# Revision: 1
# Processed by: cddbd v1.5.2PL0 Copyright (c) Steve Scherf et al.
# Submitted via: audiograbber 1.83.01
#
DISCID=8d0bbe0a
DTITLE=Jochen Volpert - Split Personality
DYEAR=2016
DGENRE=Blues
TTITLE0=Split Personality
TTITLE1=The River
TTITLE2=The Girl
TTITLE3=For Jeff
TTITLE4=The Truth
TTITLE5=French Blues
TTITLE6=Hunger For Life
TTITLE7=Behave!
TTITLE8=Leaving Behind
TTITLE9=Dreamcatcher
EXTD=
EXTT0=
EXTT1=
EXTT2=
EXTT3=
EXTT4=
EXTT5=
EXTT6=
EXTT7=
EXTT8=
EXTT9=
PLAYORDER=
